# xmcd
# 
# Track frame offsets:
#     150
#     16392
#     33028
#     46889
#     59675
#     70821
#     87865
#     104219
#     117825
#     137543
#     150394
#     170757
#     186908
#     208038
#     221098
#     241812
#     252236
#     263397
#     288647
# 
# Disc length: 4036
# 
# Revision: 0
# Processed by: cddbd v1.5.2PL0 Copyright (c) Steve Scherf et al.
# Submitted via: fre:ac v1.0.31
# 
DISCID=120fc213
DTITLE=Eddy Arnold - You Don’t Know Me: Rediscovering Eddy Arnold
DYEAR=0
DGENRE=Country
TTITLE0=It's A Sin
TTITLE1=Anytime
TTITLE2=Make The World Go Away
TTITLE3=You Don't Know Me
TTITLE4=Something Old, Something New, Something Borrowed, Something Blue
TTITLE5=Texarkana Baby
TTITLE6=How's The World Treating You
TTITLE7=The Lovebug Itch
TTITLE8=What Is Life Without Love
TTITLE9=Johnny Reb, That's Me
TTITLE10=Just A Little Lovin' (Will Go A Long Way)
TTITLE11=Bouquet of Roses
TTITLE12=That's How Much I Love You
TTITLE13=Cattle Call
TTITLE14=I'll Hold You In My Heart
TTITLE15=Jim, I Wore A Tie Today
TTITLE16=That Do Make It Nice
TTITLE17=Wreck of the Old 97
TTITLE18=Don't Rob Another Man's Castle
EXTD=
EXTT0=
EXTT1=
EXTT2=
EXTT3=
EXTT4=
EXTT5=
EXTT6=
EXTT7=
EXTT8=
EXTT9=
EXTT10=
EXTT11=
EXTT12=
EXTT13=
EXTT14=
EXTT15=
EXTT16=
EXTT17=
EXTT18=
PLAYORDER=
